// General MIDI 128 Instrument Pack - sfizz variant
// Uses absolute sample paths (sfizz resets default_path per <group>)
// Uses loprog/hiprog (standard SFZ) instead of prg_num

// General MIDI 128 Instrument Pack
// Generated from Surge XT factory presets


// GM Program 0: acoustic_grand_piano
<group>
loprog=0 hiprog=0
<region> sample=/Volumes/External/Code/VST2SFZ/General_MIDI_samples_raw/gm_000_C2.wav pitch_keycenter=48 lokey=0 hikey=48
<region> sample=/Volumes/External/Code/VST2SFZ/General_MIDI_samples_raw/gm_000_C4.wav pitch_keycenter=72 lokey=49 hikey=72
<region> sample=/Volumes/External/Code/VST2SFZ/General_MIDI_samples_raw/gm_000_C6.wav pitch_keycenter=96 lokey=73 hikey=96
<region> sample=/Volumes/External/Code/VST2SFZ/General_MIDI_samples_raw/gm_000_C8.wav pitch_keycenter=120 lokey=97 hikey=127

// GM Program 1: bright_acoustic_piano
<group>
loprog=1 hiprog=1
<region> sample=/Volumes/External/Code/VST2SFZ/General_MIDI_samples_raw/gm_001_C2.wav pitch_keycenter=36 lokey=0 hikey=48
<region> sample=/Volumes/External/Code/VST2SFZ/General_MIDI_samples_raw/gm_001_C4.wav pitch_keycenter=60 lokey=49 hikey=72
<region> sample=/Volumes/External/Code/VST2SFZ/General_MIDI_samples_raw/gm_001_C6.wav pitch_keycenter=84 lokey=73 hikey=96
<region> sample=/Volumes/External/Code/VST2SFZ/General_MIDI_samples_raw/gm_001_C8.wav pitch_keycenter=108 lokey=97 hikey=127

// GM Program 2: electric_grand_piano
<group>
loprog=2 hiprog=2
<region> sample=/Volumes/External/Code/VST2SFZ/General_MIDI_samples_raw/gm_002_C2.wav pitch_keycenter=36 lokey=0 hikey=48
<region> sample=/Volumes/External/Code/VST2SFZ/General_MIDI_samples_raw/gm_002_C4.wav pitch_keycenter=60 lokey=49 hikey=72
<region> sample=/Volumes/External/Code/VST2SFZ/General_MIDI_samples_raw/gm_002_C6.wav pitch_keycenter=84 lokey=73 hikey=96
<region> sample=/Volumes/External/Code/VST2SFZ/General_MIDI_samples_raw/gm_002_C8.wav pitch_keycenter=108 lokey=97 hikey=127

// GM Program 3: honky_tonk_piano
<group>
loprog=3 hiprog=3
<region> sample=/Volumes/External/Code/VST2SFZ/General_MIDI_samples_raw/gm_003_C2.wav pitch_keycenter=24 lokey=0 hikey=48
<region> sample=/Volumes/External/Code/VST2SFZ/General_MIDI_samples_raw/gm_003_C4.wav pitch_keycenter=48 lokey=49 hikey=72
<region> sample=/Volumes/External/Code/VST2SFZ/General_MIDI_samples_raw/gm_003_C6.wav pitch_keycenter=72 lokey=73 hikey=96
<region> sample=/Volumes/External/Code/VST2SFZ/General_MIDI_samples_raw/gm_003_C8.wav pitch_keycenter=96 lokey=97 hikey=127

// GM Program 4: electric_piano_1
<group>
loprog=4 hiprog=4
<region> sample=/Volumes/External/Code/VST2SFZ/General_MIDI_samples_raw/gm_004_C2.wav pitch_keycenter=36 lokey=0 hikey=48
<region> sample=/Volumes/External/Code/VST2SFZ/General_MIDI_samples_raw/gm_004_C4.wav pitch_keycenter=60 lokey=49 hikey=72
<region> sample=/Volumes/External/Code/VST2SFZ/General_MIDI_samples_raw/gm_004_C6.wav pitch_keycenter=84 lokey=73 hikey=96
<region> sample=/Volumes/External/Code/VST2SFZ/General_MIDI_samples_raw/gm_004_C8.wav pitch_keycenter=108 lokey=97 hikey=127

// GM Program 5: electric_piano_2
<group>
loprog=5 hiprog=5
<region> sample=/Volumes/External/Code/VST2SFZ/General_MIDI_samples_raw/gm_005_C2.wav pitch_keycenter=36 lokey=0 hikey=48
<region> sample=/Volumes/External/Code/VST2SFZ/General_MIDI_samples_raw/gm_005_C4.wav pitch_keycenter=60 lokey=49 hikey=72
<region> sample=/Volumes/External/Code/VST2SFZ/General_MIDI_samples_raw/gm_005_C6.wav pitch_keycenter=84 lokey=73 hikey=96
<region> sample=/Volumes/External/Code/VST2SFZ/General_MIDI_samples_raw/gm_005_C8.wav pitch_keycenter=108 lokey=97 hikey=127

// GM Program 6: harpsichord
<group>
loprog=6 hiprog=6
<region> sample=/Volumes/External/Code/VST2SFZ/General_MIDI_samples_raw/gm_006_C2.wav pitch_keycenter=24 lokey=0 hikey=48
<region> sample=/Volumes/External/Code/VST2SFZ/General_MIDI_samples_raw/gm_006_C4.wav pitch_keycenter=48 lokey=49 hikey=72
<region> sample=/Volumes/External/Code/VST2SFZ/General_MIDI_samples_raw/gm_006_C6.wav pitch_keycenter=72 lokey=73 hikey=96
<region> sample=/Volumes/External/Code/VST2SFZ/General_MIDI_samples_raw/gm_006_C8.wav pitch_keycenter=96 lokey=97 hikey=127

// GM Program 7: clavinet
<group>
loprog=7 hiprog=7
<region> sample=/Volumes/External/Code/VST2SFZ/General_MIDI_samples_raw/gm_007_C2.wav pitch_keycenter=36 lokey=0 hikey=48
<region> sample=/Volumes/External/Code/VST2SFZ/General_MIDI_samples_raw/gm_007_C4.wav pitch_keycenter=60 lokey=49 hikey=72
<region> sample=/Volumes/External/Code/VST2SFZ/General_MIDI_samples_raw/gm_007_C6.wav pitch_keycenter=84 lokey=73 hikey=96
<region> sample=/Volumes/External/Code/VST2SFZ/General_MIDI_samples_raw/gm_007_C8.wav pitch_keycenter=108 lokey=97 hikey=127

// GM Program 8: celesta
<group>
loprog=8 hiprog=8
<region> sample=/Volumes/External/Code/VST2SFZ/General_MIDI_samples_raw/gm_008_C2.wav pitch_keycenter=36 lokey=0 hikey=48
<region> sample=/Volumes/External/Code/VST2SFZ/General_MIDI_samples_raw/gm_008_C4.wav pitch_keycenter=60 lokey=49 hikey=72
<region> sample=/Volumes/External/Code/VST2SFZ/General_MIDI_samples_raw/gm_008_C6.wav pitch_keycenter=84 lokey=73 hikey=96
<region> sample=/Volumes/External/Code/VST2SFZ/General_MIDI_samples_raw/gm_008_C8.wav pitch_keycenter=108 lokey=97 hikey=127

// GM Program 9: glockenspiel
<group>
loprog=9 hiprog=9
<region> sample=/Volumes/External/Code/VST2SFZ/General_MIDI_samples_raw/gm_009_C2.wav pitch_keycenter=36 lokey=0 hikey=48
<region> sample=/Volumes/External/Code/VST2SFZ/General_MIDI_samples_raw/gm_009_C4.wav pitch_keycenter=60 lokey=49 hikey=72
<region> sample=/Volumes/External/Code/VST2SFZ/General_MIDI_samples_raw/gm_009_C6.wav pitch_keycenter=84 lokey=73 hikey=96
<region> sample=/Volumes/External/Code/VST2SFZ/General_MIDI_samples_raw/gm_009_C8.wav pitch_keycenter=108 lokey=97 hikey=127

// GM Program 10: music_box
<group>
loprog=10 hiprog=10
<region> sample=/Volumes/External/Code/VST2SFZ/General_MIDI_samples_raw/gm_010_C2.wav pitch_keycenter=48 lokey=0 hikey=48
<region> sample=/Volumes/External/Code/VST2SFZ/General_MIDI_samples_raw/gm_010_C4.wav pitch_keycenter=72 lokey=49 hikey=72
<region> sample=/Volumes/External/Code/VST2SFZ/General_MIDI_samples_raw/gm_010_C6.wav pitch_keycenter=96 lokey=73 hikey=96
<region> sample=/Volumes/External/Code/VST2SFZ/General_MIDI_samples_raw/gm_010_C8.wav pitch_keycenter=120 lokey=97 hikey=127

// GM Program 11: vibraphone
<group>
loprog=11 hiprog=11
<region> sample=/Volumes/External/Code/VST2SFZ/General_MIDI_samples_raw/gm_011_C2.wav pitch_keycenter=36 lokey=0 hikey=48
<region> sample=/Volumes/External/Code/VST2SFZ/General_MIDI_samples_raw/gm_011_C4.wav pitch_keycenter=60 lokey=49 hikey=72
<region> sample=/Volumes/External/Code/VST2SFZ/General_MIDI_samples_raw/gm_011_C6.wav pitch_keycenter=84 lokey=73 hikey=96
<region> sample=/Volumes/External/Code/VST2SFZ/General_MIDI_samples_raw/gm_011_C8.wav pitch_keycenter=108 lokey=97 hikey=127

// GM Program 12: marimba
<group>
loprog=12 hiprog=12
<region> sample=/Volumes/External/Code/VST2SFZ/General_MIDI_samples_raw/gm_012_C2.wav pitch_keycenter=36 lokey=0 hikey=48
<region> sample=/Volumes/External/Code/VST2SFZ/General_MIDI_samples_raw/gm_012_C4.wav pitch_keycenter=60 lokey=49 hikey=72
<region> sample=/Volumes/External/Code/VST2SFZ/General_MIDI_samples_raw/gm_012_C6.wav pitch_keycenter=84 lokey=73 hikey=96
<region> sample=/Volumes/External/Code/VST2SFZ/General_MIDI_samples_raw/gm_012_C8.wav pitch_keycenter=108 lokey=97 hikey=127

// GM Program 13: xylophone
<group>
loprog=13 hiprog=13
<region> sample=/Volumes/External/Code/VST2SFZ/General_MIDI_samples_raw/gm_013_C2.wav pitch_keycenter=36 lokey=0 hikey=48
<region> sample=/Volumes/External/Code/VST2SFZ/General_MIDI_samples_raw/gm_013_C4.wav pitch_keycenter=60 lokey=49 hikey=72
<region> sample=/Volumes/External/Code/VST2SFZ/General_MIDI_samples_raw/gm_013_C6.wav pitch_keycenter=84 lokey=73 hikey=96
<region> sample=/Volumes/External/Code/VST2SFZ/General_MIDI_samples_raw/gm_013_C8.wav pitch_keycenter=108 lokey=97 hikey=127

// GM Program 14: tubular_bells
<group>
loprog=14 hiprog=14
<region> sample=/Volumes/External/Code/VST2SFZ/General_MIDI_samples_raw/gm_014_C2.wav pitch_keycenter=36 lokey=0 hikey=48
<region> sample=/Volumes/External/Code/VST2SFZ/General_MIDI_samples_raw/gm_014_C4.wav pitch_keycenter=60 lokey=49 hikey=72
<region> sample=/Volumes/External/Code/VST2SFZ/General_MIDI_samples_raw/gm_014_C6.wav pitch_keycenter=84 lokey=73 hikey=96
<region> sample=/Volumes/External/Code/VST2SFZ/General_MIDI_samples_raw/gm_014_C8.wav pitch_keycenter=108 lokey=97 hikey=127

// GM Program 15: dulcimer
<group>
loprog=15 hiprog=15
<region> sample=/Volumes/External/Code/VST2SFZ/General_MIDI_samples_raw/gm_015_C2.wav pitch_keycenter=36 lokey=0 hikey=48
<region> sample=/Volumes/External/Code/VST2SFZ/General_MIDI_samples_raw/gm_015_C4.wav pitch_keycenter=60 lokey=49 hikey=72
<region> sample=/Volumes/External/Code/VST2SFZ/General_MIDI_samples_raw/gm_015_C6.wav pitch_keycenter=84 lokey=73 hikey=96
<region> sample=/Volumes/External/Code/VST2SFZ/General_MIDI_samples_raw/gm_015_C8.wav pitch_keycenter=108 lokey=97 hikey=127

// GM Program 16: drawbar_organ
<group>
loprog=16 hiprog=16
<region> sample=/Volumes/External/Code/VST2SFZ/General_MIDI_samples_raw/gm_016_C2.wav pitch_keycenter=36 lokey=0 hikey=48
<region> sample=/Volumes/External/Code/VST2SFZ/General_MIDI_samples_raw/gm_016_C4.wav pitch_keycenter=60 lokey=49 hikey=72
<region> sample=/Volumes/External/Code/VST2SFZ/General_MIDI_samples_raw/gm_016_C6.wav pitch_keycenter=84 lokey=73 hikey=96
<region> sample=/Volumes/External/Code/VST2SFZ/General_MIDI_samples_raw/gm_016_C8.wav pitch_keycenter=108 lokey=97 hikey=127

// GM Program 17: percussive_organ
<group>
loprog=17 hiprog=17
<region> sample=/Volumes/External/Code/VST2SFZ/General_MIDI_samples_raw/gm_017_C2.wav pitch_keycenter=36 lokey=0 hikey=48
<region> sample=/Volumes/External/Code/VST2SFZ/General_MIDI_samples_raw/gm_017_C4.wav pitch_keycenter=60 lokey=49 hikey=72
<region> sample=/Volumes/External/Code/VST2SFZ/General_MIDI_samples_raw/gm_017_C6.wav pitch_keycenter=84 lokey=73 hikey=96
<region> sample=/Volumes/External/Code/VST2SFZ/General_MIDI_samples_raw/gm_017_C8.wav pitch_keycenter=108 lokey=97 hikey=127

// GM Program 18: rock_organ
<group>
loprog=18 hiprog=18
<region> sample=/Volumes/External/Code/VST2SFZ/General_MIDI_samples_raw/gm_018_C2.wav pitch_keycenter=24 lokey=0 hikey=48
<region> sample=/Volumes/External/Code/VST2SFZ/General_MIDI_samples_raw/gm_018_C4.wav pitch_keycenter=48 lokey=49 hikey=72
<region> sample=/Volumes/External/Code/VST2SFZ/General_MIDI_samples_raw/gm_018_C6.wav pitch_keycenter=72 lokey=73 hikey=96
<region> sample=/Volumes/External/Code/VST2SFZ/General_MIDI_samples_raw/gm_018_C8.wav pitch_keycenter=96 lokey=97 hikey=127

// GM Program 19: church_organ
<group>
loprog=19 hiprog=19
<region> sample=/Volumes/External/Code/VST2SFZ/General_MIDI_samples_raw/gm_019_C2.wav pitch_keycenter=36 lokey=0 hikey=48
<region> sample=/Volumes/External/Code/VST2SFZ/General_MIDI_samples_raw/gm_019_C4.wav pitch_keycenter=60 lokey=49 hikey=72
<region> sample=/Volumes/External/Code/VST2SFZ/General_MIDI_samples_raw/gm_019_C6.wav pitch_keycenter=84 lokey=73 hikey=96
<region> sample=/Volumes/External/Code/VST2SFZ/General_MIDI_samples_raw/gm_019_C8.wav pitch_keycenter=108 lokey=97 hikey=127

// GM Program 20: reed_organ
<group>
loprog=20 hiprog=20
<region> sample=/Volumes/External/Code/VST2SFZ/General_MIDI_samples_raw/gm_020_C2.wav pitch_keycenter=12 lokey=0 hikey=48
<region> sample=/Volumes/External/Code/VST2SFZ/General_MIDI_samples_raw/gm_020_C4.wav pitch_keycenter=36 lokey=49 hikey=72
<region> sample=/Volumes/External/Code/VST2SFZ/General_MIDI_samples_raw/gm_020_C6.wav pitch_keycenter=60 lokey=73 hikey=96
<region> sample=/Volumes/External/Code/VST2SFZ/General_MIDI_samples_raw/gm_020_C8.wav pitch_keycenter=84 lokey=97 hikey=127

// GM Program 21: accordion
<group>
loprog=21 hiprog=21
<region> sample=/Volumes/External/Code/VST2SFZ/General_MIDI_samples_raw/gm_021_C2.wav pitch_keycenter=48 lokey=0 hikey=48
<region> sample=/Volumes/External/Code/VST2SFZ/General_MIDI_samples_raw/gm_021_C4.wav pitch_keycenter=72 lokey=49 hikey=72
<region> sample=/Volumes/External/Code/VST2SFZ/General_MIDI_samples_raw/gm_021_C6.wav pitch_keycenter=96 lokey=73 hikey=96
<region> sample=/Volumes/External/Code/VST2SFZ/General_MIDI_samples_raw/gm_021_C8.wav pitch_keycenter=120 lokey=97 hikey=127

// GM Program 22: harmonica
<group>
loprog=22 hiprog=22
<region> sample=/Volumes/External/Code/VST2SFZ/General_MIDI_samples_raw/gm_022_C2.wav pitch_keycenter=48 lokey=0 hikey=48
<region> sample=/Volumes/External/Code/VST2SFZ/General_MIDI_samples_raw/gm_022_C4.wav pitch_keycenter=72 lokey=49 hikey=72
<region> sample=/Volumes/External/Code/VST2SFZ/General_MIDI_samples_raw/gm_022_C6.wav pitch_keycenter=96 lokey=73 hikey=96
<region> sample=/Volumes/External/Code/VST2SFZ/General_MIDI_samples_raw/gm_022_C8.wav pitch_keycenter=120 lokey=97 hikey=127

// GM Program 23: tango_accordion
<group>
loprog=23 hiprog=23
<region> sample=/Volumes/External/Code/VST2SFZ/General_MIDI_samples_raw/gm_023_C2.wav pitch_keycenter=36 lokey=0 hikey=48
<region> sample=/Volumes/External/Code/VST2SFZ/General_MIDI_samples_raw/gm_023_C4.wav pitch_keycenter=60 lokey=49 hikey=72
<region> sample=/Volumes/External/Code/VST2SFZ/General_MIDI_samples_raw/gm_023_C6.wav pitch_keycenter=84 lokey=73 hikey=96
<region> sample=/Volumes/External/Code/VST2SFZ/General_MIDI_samples_raw/gm_023_C8.wav pitch_keycenter=108 lokey=97 hikey=127

// GM Program 24: acoustic_guitar_nylon
<group>
loprog=24 hiprog=24
<region> sample=/Volumes/External/Code/VST2SFZ/General_MIDI_samples_raw/gm_024_C2.wav pitch_keycenter=24 lokey=0 hikey=48
<region> sample=/Volumes/External/Code/VST2SFZ/General_MIDI_samples_raw/gm_024_C4.wav pitch_keycenter=48 lokey=49 hikey=72
<region> sample=/Volumes/External/Code/VST2SFZ/General_MIDI_samples_raw/gm_024_C6.wav pitch_keycenter=72 lokey=73 hikey=96
<region> sample=/Volumes/External/Code/VST2SFZ/General_MIDI_samples_raw/gm_024_C8.wav pitch_keycenter=96 lokey=97 hikey=127

// GM Program 25: acoustic_guitar_steel
<group>
loprog=25 hiprog=25
<region> sample=/Volumes/External/Code/VST2SFZ/General_MIDI_samples_raw/gm_025_C2.wav pitch_keycenter=36 lokey=0 hikey=48
<region> sample=/Volumes/External/Code/VST2SFZ/General_MIDI_samples_raw/gm_025_C4.wav pitch_keycenter=60 lokey=49 hikey=72
<region> sample=/Volumes/External/Code/VST2SFZ/General_MIDI_samples_raw/gm_025_C6.wav pitch_keycenter=84 lokey=73 hikey=96
<region> sample=/Volumes/External/Code/VST2SFZ/General_MIDI_samples_raw/gm_025_C8.wav pitch_keycenter=108 lokey=97 hikey=127

// GM Program 26: electric_guitar_jazz
<group>
loprog=26 hiprog=26
<region> sample=/Volumes/External/Code/VST2SFZ/General_MIDI_samples_raw/gm_026_C2.wav pitch_keycenter=36 lokey=0 hikey=48
<region> sample=/Volumes/External/Code/VST2SFZ/General_MIDI_samples_raw/gm_026_C4.wav pitch_keycenter=60 lokey=49 hikey=72
<region> sample=/Volumes/External/Code/VST2SFZ/General_MIDI_samples_raw/gm_026_C6.wav pitch_keycenter=84 lokey=73 hikey=96
<region> sample=/Volumes/External/Code/VST2SFZ/General_MIDI_samples_raw/gm_026_C8.wav pitch_keycenter=108 lokey=97 hikey=127

// GM Program 27: electric_guitar_clean
<group>
loprog=27 hiprog=27
<region> sample=/Volumes/External/Code/VST2SFZ/General_MIDI_samples_raw/gm_027_C2.wav pitch_keycenter=36 lokey=0 hikey=48
<region> sample=/Volumes/External/Code/VST2SFZ/General_MIDI_samples_raw/gm_027_C4.wav pitch_keycenter=60 lokey=49 hikey=72
<region> sample=/Volumes/External/Code/VST2SFZ/General_MIDI_samples_raw/gm_027_C6.wav pitch_keycenter=84 lokey=73 hikey=96
<region> sample=/Volumes/External/Code/VST2SFZ/General_MIDI_samples_raw/gm_027_C8.wav pitch_keycenter=108 lokey=97 hikey=127

// GM Program 28: electric_guitar_muted
<group>
loprog=28 hiprog=28
<region> sample=/Volumes/External/Code/VST2SFZ/General_MIDI_samples_raw/gm_028_C2.wav pitch_keycenter=36 lokey=0 hikey=48
<region> sample=/Volumes/External/Code/VST2SFZ/General_MIDI_samples_raw/gm_028_C4.wav pitch_keycenter=60 lokey=49 hikey=72
<region> sample=/Volumes/External/Code/VST2SFZ/General_MIDI_samples_raw/gm_028_C6.wav pitch_keycenter=84 lokey=73 hikey=96
<region> sample=/Volumes/External/Code/VST2SFZ/General_MIDI_samples_raw/gm_028_C8.wav pitch_keycenter=108 lokey=97 hikey=127

// GM Program 29: overdriven_guitar
<group>
loprog=29 hiprog=29
<region> sample=/Volumes/External/Code/VST2SFZ/General_MIDI_samples_raw/gm_029_C2.wav pitch_keycenter=36 lokey=0 hikey=48
<region> sample=/Volumes/External/Code/VST2SFZ/General_MIDI_samples_raw/gm_029_C4.wav pitch_keycenter=60 lokey=49 hikey=72
<region> sample=/Volumes/External/Code/VST2SFZ/General_MIDI_samples_raw/gm_029_C6.wav pitch_keycenter=84 lokey=73 hikey=96
<region> sample=/Volumes/External/Code/VST2SFZ/General_MIDI_samples_raw/gm_029_C8.wav pitch_keycenter=108 lokey=97 hikey=127

// GM Program 30: distorted_guitar
<group>
loprog=30 hiprog=30
<region> sample=/Volumes/External/Code/VST2SFZ/General_MIDI_samples_raw/gm_030_C2.wav pitch_keycenter=24 lokey=0 hikey=48
<region> sample=/Volumes/External/Code/VST2SFZ/General_MIDI_samples_raw/gm_030_C4.wav pitch_keycenter=48 lokey=49 hikey=72
<region> sample=/Volumes/External/Code/VST2SFZ/General_MIDI_samples_raw/gm_030_C6.wav pitch_keycenter=72 lokey=73 hikey=96
<region> sample=/Volumes/External/Code/VST2SFZ/General_MIDI_samples_raw/gm_030_C8.wav pitch_keycenter=96 lokey=97 hikey=127

// GM Program 31: guitar_harmonics
<group>
loprog=31 hiprog=31
<region> sample=/Volumes/External/Code/VST2SFZ/General_MIDI_samples_raw/gm_031_C2.wav pitch_keycenter=-12 lokey=0 hikey=48
<region> sample=/Volumes/External/Code/VST2SFZ/General_MIDI_samples_raw/gm_031_C4.wav pitch_keycenter=12 lokey=49 hikey=72
<region> sample=/Volumes/External/Code/VST2SFZ/General_MIDI_samples_raw/gm_031_C6.wav pitch_keycenter=36 lokey=73 hikey=96
<region> sample=/Volumes/External/Code/VST2SFZ/General_MIDI_samples_raw/gm_031_C8.wav pitch_keycenter=60 lokey=97 hikey=127

// GM Program 32: acoustic_bass
<group>
loprog=32 hiprog=32
<region> sample=/Volumes/External/Code/VST2SFZ/General_MIDI_samples_raw/gm_032_C2.wav pitch_keycenter=12 lokey=0 hikey=48
<region> sample=/Volumes/External/Code/VST2SFZ/General_MIDI_samples_raw/gm_032_C4.wav pitch_keycenter=36 lokey=49 hikey=72
<region> sample=/Volumes/External/Code/VST2SFZ/General_MIDI_samples_raw/gm_032_C6.wav pitch_keycenter=60 lokey=73 hikey=96
<region> sample=/Volumes/External/Code/VST2SFZ/General_MIDI_samples_raw/gm_032_C8.wav pitch_keycenter=84 lokey=97 hikey=127

// GM Program 33: electric_bass_finger
<group>
loprog=33 hiprog=33
<region> sample=/Volumes/External/Code/VST2SFZ/General_MIDI_samples_raw/gm_033_C2.wav pitch_keycenter=24 lokey=0 hikey=48
<region> sample=/Volumes/External/Code/VST2SFZ/General_MIDI_samples_raw/gm_033_C4.wav pitch_keycenter=48 lokey=49 hikey=72
<region> sample=/Volumes/External/Code/VST2SFZ/General_MIDI_samples_raw/gm_033_C6.wav pitch_keycenter=72 lokey=73 hikey=96
<region> sample=/Volumes/External/Code/VST2SFZ/General_MIDI_samples_raw/gm_033_C8.wav pitch_keycenter=96 lokey=97 hikey=127

// GM Program 34: electric_bass_pick
<group>
loprog=34 hiprog=34
<region> sample=/Volumes/External/Code/VST2SFZ/General_MIDI_samples_raw/gm_034_C2.wav pitch_keycenter=24 lokey=0 hikey=48
<region> sample=/Volumes/External/Code/VST2SFZ/General_MIDI_samples_raw/gm_034_C4.wav pitch_keycenter=48 lokey=49 hikey=72
<region> sample=/Volumes/External/Code/VST2SFZ/General_MIDI_samples_raw/gm_034_C6.wav pitch_keycenter=72 lokey=73 hikey=96
<region> sample=/Volumes/External/Code/VST2SFZ/General_MIDI_samples_raw/gm_034_C8.wav pitch_keycenter=96 lokey=97 hikey=127

// GM Program 35: fretless_bass
<group>
loprog=35 hiprog=35
<region> sample=/Volumes/External/Code/VST2SFZ/General_MIDI_samples_raw/gm_035_C2.wav pitch_keycenter=24 lokey=0 hikey=48
<region> sample=/Volumes/External/Code/VST2SFZ/General_MIDI_samples_raw/gm_035_C4.wav pitch_keycenter=48 lokey=49 hikey=72
<region> sample=/Volumes/External/Code/VST2SFZ/General_MIDI_samples_raw/gm_035_C6.wav pitch_keycenter=72 lokey=73 hikey=96
<region> sample=/Volumes/External/Code/VST2SFZ/General_MIDI_samples_raw/gm_035_C8.wav pitch_keycenter=96 lokey=97 hikey=127

// GM Program 36: slap_bass_1
<group>
loprog=36 hiprog=36
<region> sample=/Volumes/External/Code/VST2SFZ/General_MIDI_samples_raw/gm_036_C2.wav pitch_keycenter=24 lokey=0 hikey=48
<region> sample=/Volumes/External/Code/VST2SFZ/General_MIDI_samples_raw/gm_036_C4.wav pitch_keycenter=48 lokey=49 hikey=72
<region> sample=/Volumes/External/Code/VST2SFZ/General_MIDI_samples_raw/gm_036_C6.wav pitch_keycenter=72 lokey=73 hikey=96
<region> sample=/Volumes/External/Code/VST2SFZ/General_MIDI_samples_raw/gm_036_C8.wav pitch_keycenter=96 lokey=97 hikey=127

// GM Program 37: slap_bass_2
<group>
loprog=37 hiprog=37
<region> sample=/Volumes/External/Code/VST2SFZ/General_MIDI_samples_raw/gm_037_C2.wav pitch_keycenter=24 lokey=0 hikey=48
<region> sample=/Volumes/External/Code/VST2SFZ/General_MIDI_samples_raw/gm_037_C4.wav pitch_keycenter=48 lokey=49 hikey=72
<region> sample=/Volumes/External/Code/VST2SFZ/General_MIDI_samples_raw/gm_037_C6.wav pitch_keycenter=72 lokey=73 hikey=96
<region> sample=/Volumes/External/Code/VST2SFZ/General_MIDI_samples_raw/gm_037_C8.wav pitch_keycenter=96 lokey=97 hikey=127

// GM Program 38: synth_bass_1
<group>
loprog=38 hiprog=38
<region> sample=/Volumes/External/Code/VST2SFZ/General_MIDI_samples_raw/gm_038_C2.wav pitch_keycenter=12 lokey=0 hikey=48
<region> sample=/Volumes/External/Code/VST2SFZ/General_MIDI_samples_raw/gm_038_C4.wav pitch_keycenter=36 lokey=49 hikey=72
<region> sample=/Volumes/External/Code/VST2SFZ/General_MIDI_samples_raw/gm_038_C6.wav pitch_keycenter=60 lokey=73 hikey=96
<region> sample=/Volumes/External/Code/VST2SFZ/General_MIDI_samples_raw/gm_038_C8.wav pitch_keycenter=84 lokey=97 hikey=127

// GM Program 39: synth_bass_2
<group>
loprog=39 hiprog=39
<region> sample=/Volumes/External/Code/VST2SFZ/General_MIDI_samples_raw/gm_039_C2.wav pitch_keycenter=24 lokey=0 hikey=48
<region> sample=/Volumes/External/Code/VST2SFZ/General_MIDI_samples_raw/gm_039_C4.wav pitch_keycenter=48 lokey=49 hikey=72
<region> sample=/Volumes/External/Code/VST2SFZ/General_MIDI_samples_raw/gm_039_C6.wav pitch_keycenter=72 lokey=73 hikey=96
<region> sample=/Volumes/External/Code/VST2SFZ/General_MIDI_samples_raw/gm_039_C8.wav pitch_keycenter=96 lokey=97 hikey=127

// GM Program 40: violin
<group>
loprog=40 hiprog=40
<region> sample=/Volumes/External/Code/VST2SFZ/General_MIDI_samples_raw/gm_040_C2.wav pitch_keycenter=36 lokey=0 hikey=48
<region> sample=/Volumes/External/Code/VST2SFZ/General_MIDI_samples_raw/gm_040_C4.wav pitch_keycenter=60 lokey=49 hikey=72
<region> sample=/Volumes/External/Code/VST2SFZ/General_MIDI_samples_raw/gm_040_C6.wav pitch_keycenter=84 lokey=73 hikey=96
<region> sample=/Volumes/External/Code/VST2SFZ/General_MIDI_samples_raw/gm_040_C8.wav pitch_keycenter=108 lokey=97 hikey=127

// GM Program 41: viola
<group>
loprog=41 hiprog=41
<region> sample=/Volumes/External/Code/VST2SFZ/General_MIDI_samples_raw/gm_041_C2.wav pitch_keycenter=36 lokey=0 hikey=48
<region> sample=/Volumes/External/Code/VST2SFZ/General_MIDI_samples_raw/gm_041_C4.wav pitch_keycenter=60 lokey=49 hikey=72
<region> sample=/Volumes/External/Code/VST2SFZ/General_MIDI_samples_raw/gm_041_C6.wav pitch_keycenter=84 lokey=73 hikey=96
<region> sample=/Volumes/External/Code/VST2SFZ/General_MIDI_samples_raw/gm_041_C8.wav pitch_keycenter=108 lokey=97 hikey=127

// GM Program 42: cello
<group>
loprog=42 hiprog=42
<region> sample=/Volumes/External/Code/VST2SFZ/General_MIDI_samples_raw/gm_042_C2.wav pitch_keycenter=24 lokey=0 hikey=48
<region> sample=/Volumes/External/Code/VST2SFZ/General_MIDI_samples_raw/gm_042_C4.wav pitch_keycenter=48 lokey=49 hikey=72
<region> sample=/Volumes/External/Code/VST2SFZ/General_MIDI_samples_raw/gm_042_C6.wav pitch_keycenter=72 lokey=73 hikey=96
<region> sample=/Volumes/External/Code/VST2SFZ/General_MIDI_samples_raw/gm_042_C8.wav pitch_keycenter=96 lokey=97 hikey=127

// GM Program 43: contrabass
<group>
loprog=43 hiprog=43
<region> sample=/Volumes/External/Code/VST2SFZ/General_MIDI_samples_raw/gm_043_C2.wav pitch_keycenter=12 lokey=0 hikey=48
<region> sample=/Volumes/External/Code/VST2SFZ/General_MIDI_samples_raw/gm_043_C4.wav pitch_keycenter=36 lokey=49 hikey=72
<region> sample=/Volumes/External/Code/VST2SFZ/General_MIDI_samples_raw/gm_043_C6.wav pitch_keycenter=60 lokey=73 hikey=96
<region> sample=/Volumes/External/Code/VST2SFZ/General_MIDI_samples_raw/gm_043_C8.wav pitch_keycenter=84 lokey=97 hikey=127

// GM Program 44: tremolo_strings
<group>
loprog=44 hiprog=44
<region> sample=/Volumes/External/Code/VST2SFZ/General_MIDI_samples_raw/gm_044_C2.wav pitch_keycenter=24 lokey=0 hikey=48
<region> sample=/Volumes/External/Code/VST2SFZ/General_MIDI_samples_raw/gm_044_C4.wav pitch_keycenter=48 lokey=49 hikey=72
<region> sample=/Volumes/External/Code/VST2SFZ/General_MIDI_samples_raw/gm_044_C6.wav pitch_keycenter=72 lokey=73 hikey=96
<region> sample=/Volumes/External/Code/VST2SFZ/General_MIDI_samples_raw/gm_044_C8.wav pitch_keycenter=96 lokey=97 hikey=127

// GM Program 45: pizzicato_strings
<group>
loprog=45 hiprog=45
<region> sample=/Volumes/External/Code/VST2SFZ/General_MIDI_samples_raw/gm_045_C2.wav pitch_keycenter=24 lokey=0 hikey=48
<region> sample=/Volumes/External/Code/VST2SFZ/General_MIDI_samples_raw/gm_045_C4.wav pitch_keycenter=48 lokey=49 hikey=72
<region> sample=/Volumes/External/Code/VST2SFZ/General_MIDI_samples_raw/gm_045_C6.wav pitch_keycenter=72 lokey=73 hikey=96
<region> sample=/Volumes/External/Code/VST2SFZ/General_MIDI_samples_raw/gm_045_C8.wav pitch_keycenter=96 lokey=97 hikey=127

// GM Program 46: orchestral_harp
<group>
loprog=46 hiprog=46
<region> sample=/Volumes/External/Code/VST2SFZ/General_MIDI_samples_raw/gm_046_C2.wav pitch_keycenter=24 lokey=0 hikey=48
<region> sample=/Volumes/External/Code/VST2SFZ/General_MIDI_samples_raw/gm_046_C4.wav pitch_keycenter=48 lokey=49 hikey=72
<region> sample=/Volumes/External/Code/VST2SFZ/General_MIDI_samples_raw/gm_046_C6.wav pitch_keycenter=72 lokey=73 hikey=96
<region> sample=/Volumes/External/Code/VST2SFZ/General_MIDI_samples_raw/gm_046_C8.wav pitch_keycenter=96 lokey=97 hikey=127

// GM Program 47: timpani
<group>
loprog=47 hiprog=47
<region> sample=/Volumes/External/Code/VST2SFZ/General_MIDI_samples_raw/gm_047_C2.wav pitch_keycenter=24 lokey=0 hikey=48
<region> sample=/Volumes/External/Code/VST2SFZ/General_MIDI_samples_raw/gm_047_C4.wav pitch_keycenter=48 lokey=49 hikey=72
<region> sample=/Volumes/External/Code/VST2SFZ/General_MIDI_samples_raw/gm_047_C6.wav pitch_keycenter=72 lokey=73 hikey=96
<region> sample=/Volumes/External/Code/VST2SFZ/General_MIDI_samples_raw/gm_047_C8.wav pitch_keycenter=96 lokey=97 hikey=127

// GM Program 48: string_ensemble_1
<group>
loprog=48 hiprog=48
<region> sample=/Volumes/External/Code/VST2SFZ/General_MIDI_samples_raw/gm_048_C2.wav pitch_keycenter=36 lokey=0 hikey=48
<region> sample=/Volumes/External/Code/VST2SFZ/General_MIDI_samples_raw/gm_048_C4.wav pitch_keycenter=60 lokey=49 hikey=72
<region> sample=/Volumes/External/Code/VST2SFZ/General_MIDI_samples_raw/gm_048_C6.wav pitch_keycenter=84 lokey=73 hikey=96
<region> sample=/Volumes/External/Code/VST2SFZ/General_MIDI_samples_raw/gm_048_C8.wav pitch_keycenter=108 lokey=97 hikey=127

// GM Program 49: string_ensemble_2
<group>
loprog=49 hiprog=49
<region> sample=/Volumes/External/Code/VST2SFZ/General_MIDI_samples_raw/gm_049_C2.wav pitch_keycenter=36 lokey=0 hikey=48
<region> sample=/Volumes/External/Code/VST2SFZ/General_MIDI_samples_raw/gm_049_C4.wav pitch_keycenter=60 lokey=49 hikey=72
<region> sample=/Volumes/External/Code/VST2SFZ/General_MIDI_samples_raw/gm_049_C6.wav pitch_keycenter=84 lokey=73 hikey=96
<region> sample=/Volumes/External/Code/VST2SFZ/General_MIDI_samples_raw/gm_049_C8.wav pitch_keycenter=108 lokey=97 hikey=127

// GM Program 50: synth_strings_1
<group>
loprog=50 hiprog=50
<region> sample=/Volumes/External/Code/VST2SFZ/General_MIDI_samples_raw/gm_050_C2.wav pitch_keycenter=36 lokey=0 hikey=48
<region> sample=/Volumes/External/Code/VST2SFZ/General_MIDI_samples_raw/gm_050_C4.wav pitch_keycenter=60 lokey=49 hikey=72
<region> sample=/Volumes/External/Code/VST2SFZ/General_MIDI_samples_raw/gm_050_C6.wav pitch_keycenter=84 lokey=73 hikey=96
<region> sample=/Volumes/External/Code/VST2SFZ/General_MIDI_samples_raw/gm_050_C8.wav pitch_keycenter=108 lokey=97 hikey=127

// GM Program 51: synth_strings_2
<group>
loprog=51 hiprog=51
<region> sample=/Volumes/External/Code/VST2SFZ/General_MIDI_samples_raw/gm_051_C2.wav pitch_keycenter=12 lokey=0 hikey=48
<region> sample=/Volumes/External/Code/VST2SFZ/General_MIDI_samples_raw/gm_051_C4.wav pitch_keycenter=36 lokey=49 hikey=72
<region> sample=/Volumes/External/Code/VST2SFZ/General_MIDI_samples_raw/gm_051_C6.wav pitch_keycenter=60 lokey=73 hikey=96
<region> sample=/Volumes/External/Code/VST2SFZ/General_MIDI_samples_raw/gm_051_C8.wav pitch_keycenter=84 lokey=97 hikey=127

// GM Program 52: choir_aahs
<group>
loprog=52 hiprog=52
<region> sample=/Volumes/External/Code/VST2SFZ/General_MIDI_samples_raw/gm_052_C2.wav pitch_keycenter=36 lokey=0 hikey=48
<region> sample=/Volumes/External/Code/VST2SFZ/General_MIDI_samples_raw/gm_052_C4.wav pitch_keycenter=60 lokey=49 hikey=72
<region> sample=/Volumes/External/Code/VST2SFZ/General_MIDI_samples_raw/gm_052_C6.wav pitch_keycenter=84 lokey=73 hikey=96
<region> sample=/Volumes/External/Code/VST2SFZ/General_MIDI_samples_raw/gm_052_C8.wav pitch_keycenter=108 lokey=97 hikey=127

// GM Program 53: voice_oohs
<group>
loprog=53 hiprog=53
<region> sample=/Volumes/External/Code/VST2SFZ/General_MIDI_samples_raw/gm_053_C2.wav pitch_keycenter=36 lokey=0 hikey=48
<region> sample=/Volumes/External/Code/VST2SFZ/General_MIDI_samples_raw/gm_053_C4.wav pitch_keycenter=60 lokey=49 hikey=72
<region> sample=/Volumes/External/Code/VST2SFZ/General_MIDI_samples_raw/gm_053_C6.wav pitch_keycenter=84 lokey=73 hikey=96
<region> sample=/Volumes/External/Code/VST2SFZ/General_MIDI_samples_raw/gm_053_C8.wav pitch_keycenter=108 lokey=97 hikey=127

// GM Program 54: synth_voice
<group>
loprog=54 hiprog=54
<region> sample=/Volumes/External/Code/VST2SFZ/General_MIDI_samples_raw/gm_054_C2.wav pitch_keycenter=36 lokey=0 hikey=48
<region> sample=/Volumes/External/Code/VST2SFZ/General_MIDI_samples_raw/gm_054_C4.wav pitch_keycenter=60 lokey=49 hikey=72
<region> sample=/Volumes/External/Code/VST2SFZ/General_MIDI_samples_raw/gm_054_C6.wav pitch_keycenter=84 lokey=73 hikey=96
<region> sample=/Volumes/External/Code/VST2SFZ/General_MIDI_samples_raw/gm_054_C8.wav pitch_keycenter=108 lokey=97 hikey=127

// GM Program 55: orchestra_hit
<group>
loprog=55 hiprog=55
<region> sample=/Volumes/External/Code/VST2SFZ/General_MIDI_samples_raw/gm_055_C2.wav pitch_keycenter=-12 lokey=0 hikey=48
<region> sample=/Volumes/External/Code/VST2SFZ/General_MIDI_samples_raw/gm_055_C4.wav pitch_keycenter=12 lokey=49 hikey=72
<region> sample=/Volumes/External/Code/VST2SFZ/General_MIDI_samples_raw/gm_055_C6.wav pitch_keycenter=36 lokey=73 hikey=96
<region> sample=/Volumes/External/Code/VST2SFZ/General_MIDI_samples_raw/gm_055_C8.wav pitch_keycenter=60 lokey=97 hikey=127

// GM Program 56: trumpet
<group>
loprog=56 hiprog=56
<region> sample=/Volumes/External/Code/VST2SFZ/General_MIDI_samples_raw/gm_056_C2.wav pitch_keycenter=24 lokey=0 hikey=48
<region> sample=/Volumes/External/Code/VST2SFZ/General_MIDI_samples_raw/gm_056_C4.wav pitch_keycenter=48 lokey=49 hikey=72
<region> sample=/Volumes/External/Code/VST2SFZ/General_MIDI_samples_raw/gm_056_C6.wav pitch_keycenter=72 lokey=73 hikey=96
<region> sample=/Volumes/External/Code/VST2SFZ/General_MIDI_samples_raw/gm_056_C8.wav pitch_keycenter=96 lokey=97 hikey=127

// GM Program 57: trombone
<group>
loprog=57 hiprog=57
<region> sample=/Volumes/External/Code/VST2SFZ/General_MIDI_samples_raw/gm_057_C2.wav pitch_keycenter=36 lokey=0 hikey=48
<region> sample=/Volumes/External/Code/VST2SFZ/General_MIDI_samples_raw/gm_057_C4.wav pitch_keycenter=60 lokey=49 hikey=72
<region> sample=/Volumes/External/Code/VST2SFZ/General_MIDI_samples_raw/gm_057_C6.wav pitch_keycenter=84 lokey=73 hikey=96
<region> sample=/Volumes/External/Code/VST2SFZ/General_MIDI_samples_raw/gm_057_C8.wav pitch_keycenter=108 lokey=97 hikey=127

// GM Program 58: tuba
<group>
loprog=58 hiprog=58
<region> sample=/Volumes/External/Code/VST2SFZ/General_MIDI_samples_raw/gm_058_C2.wav pitch_keycenter=36 lokey=0 hikey=48
<region> sample=/Volumes/External/Code/VST2SFZ/General_MIDI_samples_raw/gm_058_C4.wav pitch_keycenter=60 lokey=49 hikey=72
<region> sample=/Volumes/External/Code/VST2SFZ/General_MIDI_samples_raw/gm_058_C6.wav pitch_keycenter=84 lokey=73 hikey=96
<region> sample=/Volumes/External/Code/VST2SFZ/General_MIDI_samples_raw/gm_058_C8.wav pitch_keycenter=108 lokey=97 hikey=127

// GM Program 59: muted_trumpet
<group>
loprog=59 hiprog=59
<region> sample=/Volumes/External/Code/VST2SFZ/General_MIDI_samples_raw/gm_059_C2.wav pitch_keycenter=24 lokey=0 hikey=48
<region> sample=/Volumes/External/Code/VST2SFZ/General_MIDI_samples_raw/gm_059_C4.wav pitch_keycenter=48 lokey=49 hikey=72
<region> sample=/Volumes/External/Code/VST2SFZ/General_MIDI_samples_raw/gm_059_C6.wav pitch_keycenter=72 lokey=73 hikey=96
<region> sample=/Volumes/External/Code/VST2SFZ/General_MIDI_samples_raw/gm_059_C8.wav pitch_keycenter=96 lokey=97 hikey=127

// GM Program 60: french_horn
<group>
loprog=60 hiprog=60
<region> sample=/Volumes/External/Code/VST2SFZ/General_MIDI_samples_raw/gm_060_C2.wav pitch_keycenter=24 lokey=0 hikey=48
<region> sample=/Volumes/External/Code/VST2SFZ/General_MIDI_samples_raw/gm_060_C4.wav pitch_keycenter=48 lokey=49 hikey=72
<region> sample=/Volumes/External/Code/VST2SFZ/General_MIDI_samples_raw/gm_060_C6.wav pitch_keycenter=72 lokey=73 hikey=96
<region> sample=/Volumes/External/Code/VST2SFZ/General_MIDI_samples_raw/gm_060_C8.wav pitch_keycenter=96 lokey=97 hikey=127

// GM Program 61: brass_section
<group>
loprog=61 hiprog=61
<region> sample=/Volumes/External/Code/VST2SFZ/General_MIDI_samples_raw/gm_061_C2.wav pitch_keycenter=24 lokey=0 hikey=48
<region> sample=/Volumes/External/Code/VST2SFZ/General_MIDI_samples_raw/gm_061_C4.wav pitch_keycenter=48 lokey=49 hikey=72
<region> sample=/Volumes/External/Code/VST2SFZ/General_MIDI_samples_raw/gm_061_C6.wav pitch_keycenter=72 lokey=73 hikey=96
<region> sample=/Volumes/External/Code/VST2SFZ/General_MIDI_samples_raw/gm_061_C8.wav pitch_keycenter=96 lokey=97 hikey=127

// GM Program 62: synth_brass_1
<group>
loprog=62 hiprog=62
<region> sample=/Volumes/External/Code/VST2SFZ/General_MIDI_samples_raw/gm_062_C2.wav pitch_keycenter=36 lokey=0 hikey=48
<region> sample=/Volumes/External/Code/VST2SFZ/General_MIDI_samples_raw/gm_062_C4.wav pitch_keycenter=60 lokey=49 hikey=72
<region> sample=/Volumes/External/Code/VST2SFZ/General_MIDI_samples_raw/gm_062_C6.wav pitch_keycenter=84 lokey=73 hikey=96
<region> sample=/Volumes/External/Code/VST2SFZ/General_MIDI_samples_raw/gm_062_C8.wav pitch_keycenter=108 lokey=97 hikey=127

// GM Program 63: synth_brass_2
<group>
loprog=63 hiprog=63
<region> sample=/Volumes/External/Code/VST2SFZ/General_MIDI_samples_raw/gm_063_C2.wav pitch_keycenter=36 lokey=0 hikey=48
<region> sample=/Volumes/External/Code/VST2SFZ/General_MIDI_samples_raw/gm_063_C4.wav pitch_keycenter=60 lokey=49 hikey=72
<region> sample=/Volumes/External/Code/VST2SFZ/General_MIDI_samples_raw/gm_063_C6.wav pitch_keycenter=84 lokey=73 hikey=96
<region> sample=/Volumes/External/Code/VST2SFZ/General_MIDI_samples_raw/gm_063_C8.wav pitch_keycenter=108 lokey=97 hikey=127

// GM Program 64: soprano_sax
<group>
loprog=64 hiprog=64
<region> sample=/Volumes/External/Code/VST2SFZ/General_MIDI_samples_raw/gm_064_C2.wav pitch_keycenter=36 lokey=0 hikey=48
<region> sample=/Volumes/External/Code/VST2SFZ/General_MIDI_samples_raw/gm_064_C4.wav pitch_keycenter=60 lokey=49 hikey=72
<region> sample=/Volumes/External/Code/VST2SFZ/General_MIDI_samples_raw/gm_064_C6.wav pitch_keycenter=84 lokey=73 hikey=96
<region> sample=/Volumes/External/Code/VST2SFZ/General_MIDI_samples_raw/gm_064_C8.wav pitch_keycenter=108 lokey=97 hikey=127

// GM Program 65: alto_sax
<group>
loprog=65 hiprog=65
<region> sample=/Volumes/External/Code/VST2SFZ/General_MIDI_samples_raw/gm_065_C2.wav pitch_keycenter=36 lokey=0 hikey=48
<region> sample=/Volumes/External/Code/VST2SFZ/General_MIDI_samples_raw/gm_065_C4.wav pitch_keycenter=60 lokey=49 hikey=72
<region> sample=/Volumes/External/Code/VST2SFZ/General_MIDI_samples_raw/gm_065_C6.wav pitch_keycenter=84 lokey=73 hikey=96
<region> sample=/Volumes/External/Code/VST2SFZ/General_MIDI_samples_raw/gm_065_C8.wav pitch_keycenter=108 lokey=97 hikey=127

// GM Program 66: tenor_sax
<group>
loprog=66 hiprog=66
<region> sample=/Volumes/External/Code/VST2SFZ/General_MIDI_samples_raw/gm_066_C2.wav pitch_keycenter=36 lokey=0 hikey=48
<region> sample=/Volumes/External/Code/VST2SFZ/General_MIDI_samples_raw/gm_066_C4.wav pitch_keycenter=60 lokey=49 hikey=72
<region> sample=/Volumes/External/Code/VST2SFZ/General_MIDI_samples_raw/gm_066_C6.wav pitch_keycenter=84 lokey=73 hikey=96
<region> sample=/Volumes/External/Code/VST2SFZ/General_MIDI_samples_raw/gm_066_C8.wav pitch_keycenter=108 lokey=97 hikey=127

// GM Program 67: baritone_sax
<group>
loprog=67 hiprog=67
<region> sample=/Volumes/External/Code/VST2SFZ/General_MIDI_samples_raw/gm_067_C2.wav pitch_keycenter=24 lokey=0 hikey=48
<region> sample=/Volumes/External/Code/VST2SFZ/General_MIDI_samples_raw/gm_067_C4.wav pitch_keycenter=48 lokey=49 hikey=72
<region> sample=/Volumes/External/Code/VST2SFZ/General_MIDI_samples_raw/gm_067_C6.wav pitch_keycenter=72 lokey=73 hikey=96
<region> sample=/Volumes/External/Code/VST2SFZ/General_MIDI_samples_raw/gm_067_C8.wav pitch_keycenter=96 lokey=97 hikey=127

// GM Program 68: oboe
<group>
loprog=68 hiprog=68
<region> sample=/Volumes/External/Code/VST2SFZ/General_MIDI_samples_raw/gm_068_C2.wav pitch_keycenter=36 lokey=0 hikey=48
<region> sample=/Volumes/External/Code/VST2SFZ/General_MIDI_samples_raw/gm_068_C4.wav pitch_keycenter=60 lokey=49 hikey=72
<region> sample=/Volumes/External/Code/VST2SFZ/General_MIDI_samples_raw/gm_068_C6.wav pitch_keycenter=84 lokey=73 hikey=96
<region> sample=/Volumes/External/Code/VST2SFZ/General_MIDI_samples_raw/gm_068_C8.wav pitch_keycenter=108 lokey=97 hikey=127

// GM Program 69: english_horn
<group>
loprog=69 hiprog=69
<region> sample=/Volumes/External/Code/VST2SFZ/General_MIDI_samples_raw/gm_069_C2.wav pitch_keycenter=36 lokey=0 hikey=48
<region> sample=/Volumes/External/Code/VST2SFZ/General_MIDI_samples_raw/gm_069_C4.wav pitch_keycenter=60 lokey=49 hikey=72
<region> sample=/Volumes/External/Code/VST2SFZ/General_MIDI_samples_raw/gm_069_C6.wav pitch_keycenter=84 lokey=73 hikey=96
<region> sample=/Volumes/External/Code/VST2SFZ/General_MIDI_samples_raw/gm_069_C8.wav pitch_keycenter=108 lokey=97 hikey=127

// GM Program 70: bassoon
<group>
loprog=70 hiprog=70
<region> sample=/Volumes/External/Code/VST2SFZ/General_MIDI_samples_raw/gm_070_C2.wav pitch_keycenter=48 lokey=0 hikey=48
<region> sample=/Volumes/External/Code/VST2SFZ/General_MIDI_samples_raw/gm_070_C4.wav pitch_keycenter=72 lokey=49 hikey=72
<region> sample=/Volumes/External/Code/VST2SFZ/General_MIDI_samples_raw/gm_070_C6.wav pitch_keycenter=96 lokey=73 hikey=96
<region> sample=/Volumes/External/Code/VST2SFZ/General_MIDI_samples_raw/gm_070_C8.wav pitch_keycenter=120 lokey=97 hikey=127

// GM Program 71: clarinet
<group>
loprog=71 hiprog=71
<region> sample=/Volumes/External/Code/VST2SFZ/General_MIDI_samples_raw/gm_071_C2.wav pitch_keycenter=36 lokey=0 hikey=48
<region> sample=/Volumes/External/Code/VST2SFZ/General_MIDI_samples_raw/gm_071_C4.wav pitch_keycenter=60 lokey=49 hikey=72
<region> sample=/Volumes/External/Code/VST2SFZ/General_MIDI_samples_raw/gm_071_C6.wav pitch_keycenter=84 lokey=73 hikey=96
<region> sample=/Volumes/External/Code/VST2SFZ/General_MIDI_samples_raw/gm_071_C8.wav pitch_keycenter=108 lokey=97 hikey=127

// GM Program 72: piccolo
<group>
loprog=72 hiprog=72
<region> sample=/Volumes/External/Code/VST2SFZ/General_MIDI_samples_raw/gm_072_C2.wav pitch_keycenter=36 lokey=0 hikey=48
<region> sample=/Volumes/External/Code/VST2SFZ/General_MIDI_samples_raw/gm_072_C4.wav pitch_keycenter=60 lokey=49 hikey=72
<region> sample=/Volumes/External/Code/VST2SFZ/General_MIDI_samples_raw/gm_072_C6.wav pitch_keycenter=84 lokey=73 hikey=96
<region> sample=/Volumes/External/Code/VST2SFZ/General_MIDI_samples_raw/gm_072_C8.wav pitch_keycenter=108 lokey=97 hikey=127

// GM Program 73: flute
<group>
loprog=73 hiprog=73
<region> sample=/Volumes/External/Code/VST2SFZ/General_MIDI_samples_raw/gm_073_C2.wav pitch_keycenter=36 lokey=0 hikey=48
<region> sample=/Volumes/External/Code/VST2SFZ/General_MIDI_samples_raw/gm_073_C4.wav pitch_keycenter=60 lokey=49 hikey=72
<region> sample=/Volumes/External/Code/VST2SFZ/General_MIDI_samples_raw/gm_073_C6.wav pitch_keycenter=84 lokey=73 hikey=96
<region> sample=/Volumes/External/Code/VST2SFZ/General_MIDI_samples_raw/gm_073_C8.wav pitch_keycenter=108 lokey=97 hikey=127

// GM Program 74: recorder
<group>
loprog=74 hiprog=74
<region> sample=/Volumes/External/Code/VST2SFZ/General_MIDI_samples_raw/gm_074_C2.wav pitch_keycenter=36 lokey=0 hikey=48
<region> sample=/Volumes/External/Code/VST2SFZ/General_MIDI_samples_raw/gm_074_C4.wav pitch_keycenter=60 lokey=49 hikey=72
<region> sample=/Volumes/External/Code/VST2SFZ/General_MIDI_samples_raw/gm_074_C6.wav pitch_keycenter=84 lokey=73 hikey=96
<region> sample=/Volumes/External/Code/VST2SFZ/General_MIDI_samples_raw/gm_074_C8.wav pitch_keycenter=108 lokey=97 hikey=127

// GM Program 75: pan_flute
<group>
loprog=75 hiprog=75
<region> sample=/Volumes/External/Code/VST2SFZ/General_MIDI_samples_raw/gm_075_C2.wav pitch_keycenter=24 lokey=0 hikey=48
<region> sample=/Volumes/External/Code/VST2SFZ/General_MIDI_samples_raw/gm_075_C4.wav pitch_keycenter=48 lokey=49 hikey=72
<region> sample=/Volumes/External/Code/VST2SFZ/General_MIDI_samples_raw/gm_075_C6.wav pitch_keycenter=72 lokey=73 hikey=96
<region> sample=/Volumes/External/Code/VST2SFZ/General_MIDI_samples_raw/gm_075_C8.wav pitch_keycenter=96 lokey=97 hikey=127

// GM Program 76: blown_bottle
<group>
loprog=76 hiprog=76
<region> sample=/Volumes/External/Code/VST2SFZ/General_MIDI_samples_raw/gm_076_C2.wav pitch_keycenter=24 lokey=0 hikey=48
<region> sample=/Volumes/External/Code/VST2SFZ/General_MIDI_samples_raw/gm_076_C4.wav pitch_keycenter=48 lokey=49 hikey=72
<region> sample=/Volumes/External/Code/VST2SFZ/General_MIDI_samples_raw/gm_076_C6.wav pitch_keycenter=72 lokey=73 hikey=96
<region> sample=/Volumes/External/Code/VST2SFZ/General_MIDI_samples_raw/gm_076_C8.wav pitch_keycenter=96 lokey=97 hikey=127

// GM Program 77: shakuhachi
<group>
loprog=77 hiprog=77
<region> sample=/Volumes/External/Code/VST2SFZ/General_MIDI_samples_raw/gm_077_C2.wav pitch_keycenter=24 lokey=0 hikey=48
<region> sample=/Volumes/External/Code/VST2SFZ/General_MIDI_samples_raw/gm_077_C4.wav pitch_keycenter=48 lokey=49 hikey=72
<region> sample=/Volumes/External/Code/VST2SFZ/General_MIDI_samples_raw/gm_077_C6.wav pitch_keycenter=72 lokey=73 hikey=96
<region> sample=/Volumes/External/Code/VST2SFZ/General_MIDI_samples_raw/gm_077_C8.wav pitch_keycenter=96 lokey=97 hikey=127

// GM Program 78: whistle
<group>
loprog=78 hiprog=78
<region> sample=/Volumes/External/Code/VST2SFZ/General_MIDI_samples_raw/gm_078_C2.wav pitch_keycenter=24 lokey=0 hikey=48
<region> sample=/Volumes/External/Code/VST2SFZ/General_MIDI_samples_raw/gm_078_C4.wav pitch_keycenter=48 lokey=49 hikey=72
<region> sample=/Volumes/External/Code/VST2SFZ/General_MIDI_samples_raw/gm_078_C6.wav pitch_keycenter=72 lokey=73 hikey=96
<region> sample=/Volumes/External/Code/VST2SFZ/General_MIDI_samples_raw/gm_078_C8.wav pitch_keycenter=96 lokey=97 hikey=127

// GM Program 79: ocarina
<group>
loprog=79 hiprog=79
<region> sample=/Volumes/External/Code/VST2SFZ/General_MIDI_samples_raw/gm_079_C2.wav pitch_keycenter=36 lokey=0 hikey=48
<region> sample=/Volumes/External/Code/VST2SFZ/General_MIDI_samples_raw/gm_079_C4.wav pitch_keycenter=60 lokey=49 hikey=72
<region> sample=/Volumes/External/Code/VST2SFZ/General_MIDI_samples_raw/gm_079_C6.wav pitch_keycenter=84 lokey=73 hikey=96
<region> sample=/Volumes/External/Code/VST2SFZ/General_MIDI_samples_raw/gm_079_C8.wav pitch_keycenter=108 lokey=97 hikey=127

// GM Program 80: lead_1_square
<group>
loprog=80 hiprog=80
<region> sample=/Volumes/External/Code/VST2SFZ/General_MIDI_samples_raw/gm_080_C2.wav pitch_keycenter=24 lokey=0 hikey=48
<region> sample=/Volumes/External/Code/VST2SFZ/General_MIDI_samples_raw/gm_080_C4.wav pitch_keycenter=48 lokey=49 hikey=72
<region> sample=/Volumes/External/Code/VST2SFZ/General_MIDI_samples_raw/gm_080_C6.wav pitch_keycenter=72 lokey=73 hikey=96
<region> sample=/Volumes/External/Code/VST2SFZ/General_MIDI_samples_raw/gm_080_C8.wav pitch_keycenter=96 lokey=97 hikey=127

// GM Program 81: lead_2_sawtooth
<group>
loprog=81 hiprog=81
<region> sample=/Volumes/External/Code/VST2SFZ/General_MIDI_samples_raw/gm_081_C2.wav pitch_keycenter=36 lokey=0 hikey=48
<region> sample=/Volumes/External/Code/VST2SFZ/General_MIDI_samples_raw/gm_081_C4.wav pitch_keycenter=60 lokey=49 hikey=72
<region> sample=/Volumes/External/Code/VST2SFZ/General_MIDI_samples_raw/gm_081_C6.wav pitch_keycenter=84 lokey=73 hikey=96
<region> sample=/Volumes/External/Code/VST2SFZ/General_MIDI_samples_raw/gm_081_C8.wav pitch_keycenter=108 lokey=97 hikey=127

// GM Program 82: lead_3_calliope
<group>
loprog=82 hiprog=82
<region> sample=/Volumes/External/Code/VST2SFZ/General_MIDI_samples_raw/gm_082_C2.wav pitch_keycenter=24 lokey=0 hikey=48
<region> sample=/Volumes/External/Code/VST2SFZ/General_MIDI_samples_raw/gm_082_C4.wav pitch_keycenter=48 lokey=49 hikey=72
<region> sample=/Volumes/External/Code/VST2SFZ/General_MIDI_samples_raw/gm_082_C6.wav pitch_keycenter=72 lokey=73 hikey=96
<region> sample=/Volumes/External/Code/VST2SFZ/General_MIDI_samples_raw/gm_082_C8.wav pitch_keycenter=96 lokey=97 hikey=127

// GM Program 83: lead_4_chiff
<group>
loprog=83 hiprog=83
<region> sample=/Volumes/External/Code/VST2SFZ/General_MIDI_samples_raw/gm_083_C2.wav pitch_keycenter=24 lokey=0 hikey=48
<region> sample=/Volumes/External/Code/VST2SFZ/General_MIDI_samples_raw/gm_083_C4.wav pitch_keycenter=48 lokey=49 hikey=72
<region> sample=/Volumes/External/Code/VST2SFZ/General_MIDI_samples_raw/gm_083_C6.wav pitch_keycenter=72 lokey=73 hikey=96
<region> sample=/Volumes/External/Code/VST2SFZ/General_MIDI_samples_raw/gm_083_C8.wav pitch_keycenter=96 lokey=97 hikey=127

// GM Program 84: lead_5_charang
<group>
loprog=84 hiprog=84
<region> sample=/Volumes/External/Code/VST2SFZ/General_MIDI_samples_raw/gm_084_C2.wav pitch_keycenter=24 lokey=0 hikey=48
<region> sample=/Volumes/External/Code/VST2SFZ/General_MIDI_samples_raw/gm_084_C4.wav pitch_keycenter=48 lokey=49 hikey=72
<region> sample=/Volumes/External/Code/VST2SFZ/General_MIDI_samples_raw/gm_084_C6.wav pitch_keycenter=72 lokey=73 hikey=96
<region> sample=/Volumes/External/Code/VST2SFZ/General_MIDI_samples_raw/gm_084_C8.wav pitch_keycenter=96 lokey=97 hikey=127

// GM Program 85: lead_6_voice
<group>
loprog=85 hiprog=85
<region> sample=/Volumes/External/Code/VST2SFZ/General_MIDI_samples_raw/gm_085_C2.wav pitch_keycenter=24 lokey=0 hikey=48
<region> sample=/Volumes/External/Code/VST2SFZ/General_MIDI_samples_raw/gm_085_C4.wav pitch_keycenter=48 lokey=49 hikey=72
<region> sample=/Volumes/External/Code/VST2SFZ/General_MIDI_samples_raw/gm_085_C6.wav pitch_keycenter=72 lokey=73 hikey=96
<region> sample=/Volumes/External/Code/VST2SFZ/General_MIDI_samples_raw/gm_085_C8.wav pitch_keycenter=96 lokey=97 hikey=127

// GM Program 86: lead_7_fifths
<group>
loprog=86 hiprog=86
<region> sample=/Volumes/External/Code/VST2SFZ/General_MIDI_samples_raw/gm_086_C2.wav pitch_keycenter=12 lokey=0 hikey=48
<region> sample=/Volumes/External/Code/VST2SFZ/General_MIDI_samples_raw/gm_086_C4.wav pitch_keycenter=36 lokey=49 hikey=72
<region> sample=/Volumes/External/Code/VST2SFZ/General_MIDI_samples_raw/gm_086_C6.wav pitch_keycenter=60 lokey=73 hikey=96
<region> sample=/Volumes/External/Code/VST2SFZ/General_MIDI_samples_raw/gm_086_C8.wav pitch_keycenter=84 lokey=97 hikey=127

// GM Program 87: lead_8_bass_lead
<group>
loprog=87 hiprog=87
<region> sample=/Volumes/External/Code/VST2SFZ/General_MIDI_samples_raw/gm_087_C2.wav pitch_keycenter=12 lokey=0 hikey=48
<region> sample=/Volumes/External/Code/VST2SFZ/General_MIDI_samples_raw/gm_087_C4.wav pitch_keycenter=36 lokey=49 hikey=72
<region> sample=/Volumes/External/Code/VST2SFZ/General_MIDI_samples_raw/gm_087_C6.wav pitch_keycenter=60 lokey=73 hikey=96
<region> sample=/Volumes/External/Code/VST2SFZ/General_MIDI_samples_raw/gm_087_C8.wav pitch_keycenter=84 lokey=97 hikey=127

// GM Program 88: pad_1_new_age
<group>
loprog=88 hiprog=88
<region> sample=/Volumes/External/Code/VST2SFZ/General_MIDI_samples_raw/gm_088_C2.wav pitch_keycenter=24 lokey=0 hikey=48
<region> sample=/Volumes/External/Code/VST2SFZ/General_MIDI_samples_raw/gm_088_C4.wav pitch_keycenter=48 lokey=49 hikey=72
<region> sample=/Volumes/External/Code/VST2SFZ/General_MIDI_samples_raw/gm_088_C6.wav pitch_keycenter=72 lokey=73 hikey=96
<region> sample=/Volumes/External/Code/VST2SFZ/General_MIDI_samples_raw/gm_088_C8.wav pitch_keycenter=96 lokey=97 hikey=127

// GM Program 89: pad_2_warm
<group>
loprog=89 hiprog=89
<region> sample=/Volumes/External/Code/VST2SFZ/General_MIDI_samples_raw/gm_089_C2.wav pitch_keycenter=0 lokey=0 hikey=48
<region> sample=/Volumes/External/Code/VST2SFZ/General_MIDI_samples_raw/gm_089_C4.wav pitch_keycenter=24 lokey=49 hikey=72
<region> sample=/Volumes/External/Code/VST2SFZ/General_MIDI_samples_raw/gm_089_C6.wav pitch_keycenter=48 lokey=73 hikey=96
<region> sample=/Volumes/External/Code/VST2SFZ/General_MIDI_samples_raw/gm_089_C8.wav pitch_keycenter=72 lokey=97 hikey=127

// GM Program 90: pad_3_polysynth
<group>
loprog=90 hiprog=90
<region> sample=/Volumes/External/Code/VST2SFZ/General_MIDI_samples_raw/gm_090_C2.wav pitch_keycenter=24 lokey=0 hikey=48
<region> sample=/Volumes/External/Code/VST2SFZ/General_MIDI_samples_raw/gm_090_C4.wav pitch_keycenter=48 lokey=49 hikey=72
<region> sample=/Volumes/External/Code/VST2SFZ/General_MIDI_samples_raw/gm_090_C6.wav pitch_keycenter=72 lokey=73 hikey=96
<region> sample=/Volumes/External/Code/VST2SFZ/General_MIDI_samples_raw/gm_090_C8.wav pitch_keycenter=96 lokey=97 hikey=127

// GM Program 91: pad_4_choir
<group>
loprog=91 hiprog=91
<region> sample=/Volumes/External/Code/VST2SFZ/General_MIDI_samples_raw/gm_091_C2.wav pitch_keycenter=36 lokey=0 hikey=48
<region> sample=/Volumes/External/Code/VST2SFZ/General_MIDI_samples_raw/gm_091_C4.wav pitch_keycenter=60 lokey=49 hikey=72
<region> sample=/Volumes/External/Code/VST2SFZ/General_MIDI_samples_raw/gm_091_C6.wav pitch_keycenter=84 lokey=73 hikey=96
<region> sample=/Volumes/External/Code/VST2SFZ/General_MIDI_samples_raw/gm_091_C8.wav pitch_keycenter=108 lokey=97 hikey=127

// GM Program 92: pad_5_bowed
<group>
loprog=92 hiprog=92
<region> sample=/Volumes/External/Code/VST2SFZ/General_MIDI_samples_raw/gm_092_C2.wav pitch_keycenter=36 lokey=0 hikey=48
<region> sample=/Volumes/External/Code/VST2SFZ/General_MIDI_samples_raw/gm_092_C4.wav pitch_keycenter=60 lokey=49 hikey=72
<region> sample=/Volumes/External/Code/VST2SFZ/General_MIDI_samples_raw/gm_092_C6.wav pitch_keycenter=84 lokey=73 hikey=96
<region> sample=/Volumes/External/Code/VST2SFZ/General_MIDI_samples_raw/gm_092_C8.wav pitch_keycenter=108 lokey=97 hikey=127

// GM Program 93: pad_6_metallic
<group>
loprog=93 hiprog=93
<region> sample=/Volumes/External/Code/VST2SFZ/General_MIDI_samples_raw/gm_093_C2.wav pitch_keycenter=36 lokey=0 hikey=48
<region> sample=/Volumes/External/Code/VST2SFZ/General_MIDI_samples_raw/gm_093_C4.wav pitch_keycenter=60 lokey=49 hikey=72
<region> sample=/Volumes/External/Code/VST2SFZ/General_MIDI_samples_raw/gm_093_C6.wav pitch_keycenter=84 lokey=73 hikey=96
<region> sample=/Volumes/External/Code/VST2SFZ/General_MIDI_samples_raw/gm_093_C8.wav pitch_keycenter=108 lokey=97 hikey=127

// GM Program 94: pad_7_halo
<group>
loprog=94 hiprog=94
<region> sample=/Volumes/External/Code/VST2SFZ/General_MIDI_samples_raw/gm_094_C2.wav pitch_keycenter=12 lokey=0 hikey=48
<region> sample=/Volumes/External/Code/VST2SFZ/General_MIDI_samples_raw/gm_094_C4.wav pitch_keycenter=36 lokey=49 hikey=72
<region> sample=/Volumes/External/Code/VST2SFZ/General_MIDI_samples_raw/gm_094_C6.wav pitch_keycenter=60 lokey=73 hikey=96
<region> sample=/Volumes/External/Code/VST2SFZ/General_MIDI_samples_raw/gm_094_C8.wav pitch_keycenter=84 lokey=97 hikey=127

// GM Program 95: pad_8_sweep
<group>
loprog=95 hiprog=95
<region> sample=/Volumes/External/Code/VST2SFZ/General_MIDI_samples_raw/gm_095_C2.wav pitch_keycenter=12 lokey=0 hikey=48
<region> sample=/Volumes/External/Code/VST2SFZ/General_MIDI_samples_raw/gm_095_C4.wav pitch_keycenter=36 lokey=49 hikey=72
<region> sample=/Volumes/External/Code/VST2SFZ/General_MIDI_samples_raw/gm_095_C6.wav pitch_keycenter=60 lokey=73 hikey=96
<region> sample=/Volumes/External/Code/VST2SFZ/General_MIDI_samples_raw/gm_095_C8.wav pitch_keycenter=84 lokey=97 hikey=127

// GM Program 96: fx_1_rain
<group>
loprog=96 hiprog=96
<region> sample=/Volumes/External/Code/VST2SFZ/General_MIDI_samples_raw/gm_096_C2.wav pitch_keycenter=60 lokey=0 hikey=48
<region> sample=/Volumes/External/Code/VST2SFZ/General_MIDI_samples_raw/gm_096_C4.wav pitch_keycenter=84 lokey=49 hikey=72
<region> sample=/Volumes/External/Code/VST2SFZ/General_MIDI_samples_raw/gm_096_C6.wav pitch_keycenter=108 lokey=73 hikey=96
<region> sample=/Volumes/External/Code/VST2SFZ/General_MIDI_samples_raw/gm_096_C8.wav pitch_keycenter=132 lokey=97 hikey=127

// GM Program 97: fx_2_soundtrack
<group>
loprog=97 hiprog=97
<region> sample=/Volumes/External/Code/VST2SFZ/General_MIDI_samples_raw/gm_097_C2.wav pitch_keycenter=36 lokey=0 hikey=48
<region> sample=/Volumes/External/Code/VST2SFZ/General_MIDI_samples_raw/gm_097_C4.wav pitch_keycenter=60 lokey=49 hikey=72
<region> sample=/Volumes/External/Code/VST2SFZ/General_MIDI_samples_raw/gm_097_C6.wav pitch_keycenter=84 lokey=73 hikey=96
<region> sample=/Volumes/External/Code/VST2SFZ/General_MIDI_samples_raw/gm_097_C8.wav pitch_keycenter=108 lokey=97 hikey=127

// GM Program 98: fx_3_crystal
<group>
loprog=98 hiprog=98
<region> sample=/Volumes/External/Code/VST2SFZ/General_MIDI_samples_raw/gm_098_C2.wav pitch_keycenter=60 lokey=0 hikey=48
<region> sample=/Volumes/External/Code/VST2SFZ/General_MIDI_samples_raw/gm_098_C4.wav pitch_keycenter=84 lokey=49 hikey=72
<region> sample=/Volumes/External/Code/VST2SFZ/General_MIDI_samples_raw/gm_098_C6.wav pitch_keycenter=108 lokey=73 hikey=96
<region> sample=/Volumes/External/Code/VST2SFZ/General_MIDI_samples_raw/gm_098_C8.wav pitch_keycenter=132 lokey=97 hikey=127

// GM Program 99: fx_4_atmosphere
<group>
loprog=99 hiprog=99
<region> sample=/Volumes/External/Code/VST2SFZ/General_MIDI_samples_raw/gm_099_C2.wav pitch_keycenter=12 lokey=0 hikey=48
<region> sample=/Volumes/External/Code/VST2SFZ/General_MIDI_samples_raw/gm_099_C4.wav pitch_keycenter=36 lokey=49 hikey=72
<region> sample=/Volumes/External/Code/VST2SFZ/General_MIDI_samples_raw/gm_099_C6.wav pitch_keycenter=60 lokey=73 hikey=96
<region> sample=/Volumes/External/Code/VST2SFZ/General_MIDI_samples_raw/gm_099_C8.wav pitch_keycenter=84 lokey=97 hikey=127

// GM Program 100: fx_5_brightness
<group>
loprog=100 hiprog=100
<region> sample=/Volumes/External/Code/VST2SFZ/General_MIDI_samples_raw/gm_100_C2.wav pitch_keycenter=0 lokey=0 hikey=48
<region> sample=/Volumes/External/Code/VST2SFZ/General_MIDI_samples_raw/gm_100_C4.wav pitch_keycenter=24 lokey=49 hikey=72
<region> sample=/Volumes/External/Code/VST2SFZ/General_MIDI_samples_raw/gm_100_C6.wav pitch_keycenter=48 lokey=73 hikey=96
<region> sample=/Volumes/External/Code/VST2SFZ/General_MIDI_samples_raw/gm_100_C8.wav pitch_keycenter=72 lokey=97 hikey=127

// GM Program 101: fx_6_goblins
<group>
loprog=101 hiprog=101
<region> sample=/Volumes/External/Code/VST2SFZ/General_MIDI_samples_raw/gm_101_C2.wav pitch_keycenter=-48 lokey=0 hikey=48
<region> sample=/Volumes/External/Code/VST2SFZ/General_MIDI_samples_raw/gm_101_C4.wav pitch_keycenter=-24 lokey=49 hikey=72
<region> sample=/Volumes/External/Code/VST2SFZ/General_MIDI_samples_raw/gm_101_C6.wav pitch_keycenter=0 lokey=73 hikey=96
<region> sample=/Volumes/External/Code/VST2SFZ/General_MIDI_samples_raw/gm_101_C8.wav pitch_keycenter=24 lokey=97 hikey=127

// GM Program 102: fx_7_echoes
<group>
loprog=102 hiprog=102
<region> sample=/Volumes/External/Code/VST2SFZ/General_MIDI_samples_raw/gm_102_C2.wav pitch_keycenter=36 lokey=0 hikey=48
<region> sample=/Volumes/External/Code/VST2SFZ/General_MIDI_samples_raw/gm_102_C4.wav pitch_keycenter=60 lokey=49 hikey=72
<region> sample=/Volumes/External/Code/VST2SFZ/General_MIDI_samples_raw/gm_102_C6.wav pitch_keycenter=84 lokey=73 hikey=96
<region> sample=/Volumes/External/Code/VST2SFZ/General_MIDI_samples_raw/gm_102_C8.wav pitch_keycenter=108 lokey=97 hikey=127

// GM Program 103: fx_8_sci_fi
<group>
loprog=103 hiprog=103
<region> sample=/Volumes/External/Code/VST2SFZ/General_MIDI_samples_raw/gm_103_C2.wav pitch_keycenter=84 lokey=0 hikey=48
<region> sample=/Volumes/External/Code/VST2SFZ/General_MIDI_samples_raw/gm_103_C4.wav pitch_keycenter=108 lokey=49 hikey=72
<region> sample=/Volumes/External/Code/VST2SFZ/General_MIDI_samples_raw/gm_103_C6.wav pitch_keycenter=132 lokey=73 hikey=96
<region> sample=/Volumes/External/Code/VST2SFZ/General_MIDI_samples_raw/gm_103_C8.wav pitch_keycenter=156 lokey=97 hikey=127

// GM Program 104: sitar
<group>
loprog=104 hiprog=104
<region> sample=/Volumes/External/Code/VST2SFZ/General_MIDI_samples_raw/gm_104_C2.wav pitch_keycenter=12 lokey=0 hikey=48
<region> sample=/Volumes/External/Code/VST2SFZ/General_MIDI_samples_raw/gm_104_C4.wav pitch_keycenter=36 lokey=49 hikey=72
<region> sample=/Volumes/External/Code/VST2SFZ/General_MIDI_samples_raw/gm_104_C6.wav pitch_keycenter=60 lokey=73 hikey=96
<region> sample=/Volumes/External/Code/VST2SFZ/General_MIDI_samples_raw/gm_104_C8.wav pitch_keycenter=84 lokey=97 hikey=127

// GM Program 105: banjo
<group>
loprog=105 hiprog=105
<region> sample=/Volumes/External/Code/VST2SFZ/General_MIDI_samples_raw/gm_105_C2.wav pitch_keycenter=36 lokey=0 hikey=48
<region> sample=/Volumes/External/Code/VST2SFZ/General_MIDI_samples_raw/gm_105_C4.wav pitch_keycenter=60 lokey=49 hikey=72
<region> sample=/Volumes/External/Code/VST2SFZ/General_MIDI_samples_raw/gm_105_C6.wav pitch_keycenter=84 lokey=73 hikey=96
<region> sample=/Volumes/External/Code/VST2SFZ/General_MIDI_samples_raw/gm_105_C8.wav pitch_keycenter=108 lokey=97 hikey=127

// GM Program 106: shamisen
<group>
loprog=106 hiprog=106
<region> sample=/Volumes/External/Code/VST2SFZ/General_MIDI_samples_raw/gm_106_C2.wav pitch_keycenter=36 lokey=0 hikey=48
<region> sample=/Volumes/External/Code/VST2SFZ/General_MIDI_samples_raw/gm_106_C4.wav pitch_keycenter=60 lokey=49 hikey=72
<region> sample=/Volumes/External/Code/VST2SFZ/General_MIDI_samples_raw/gm_106_C6.wav pitch_keycenter=84 lokey=73 hikey=96
<region> sample=/Volumes/External/Code/VST2SFZ/General_MIDI_samples_raw/gm_106_C8.wav pitch_keycenter=108 lokey=97 hikey=127

// GM Program 107: koto
<group>
loprog=107 hiprog=107
<region> sample=/Volumes/External/Code/VST2SFZ/General_MIDI_samples_raw/gm_107_C2.wav pitch_keycenter=24 lokey=0 hikey=48
<region> sample=/Volumes/External/Code/VST2SFZ/General_MIDI_samples_raw/gm_107_C4.wav pitch_keycenter=48 lokey=49 hikey=72
<region> sample=/Volumes/External/Code/VST2SFZ/General_MIDI_samples_raw/gm_107_C6.wav pitch_keycenter=72 lokey=73 hikey=96
<region> sample=/Volumes/External/Code/VST2SFZ/General_MIDI_samples_raw/gm_107_C8.wav pitch_keycenter=96 lokey=97 hikey=127

// GM Program 108: kalimba
<group>
loprog=108 hiprog=108
<region> sample=/Volumes/External/Code/VST2SFZ/General_MIDI_samples_raw/gm_108_C2.wav pitch_keycenter=36 lokey=0 hikey=48
<region> sample=/Volumes/External/Code/VST2SFZ/General_MIDI_samples_raw/gm_108_C4.wav pitch_keycenter=60 lokey=49 hikey=72
<region> sample=/Volumes/External/Code/VST2SFZ/General_MIDI_samples_raw/gm_108_C6.wav pitch_keycenter=84 lokey=73 hikey=96
<region> sample=/Volumes/External/Code/VST2SFZ/General_MIDI_samples_raw/gm_108_C8.wav pitch_keycenter=108 lokey=97 hikey=127

// GM Program 109: bagpipe
<group>
loprog=109 hiprog=109
<region> sample=/Volumes/External/Code/VST2SFZ/General_MIDI_samples_raw/gm_109_C2.wav pitch_keycenter=24 lokey=0 hikey=48
<region> sample=/Volumes/External/Code/VST2SFZ/General_MIDI_samples_raw/gm_109_C4.wav pitch_keycenter=48 lokey=49 hikey=72
<region> sample=/Volumes/External/Code/VST2SFZ/General_MIDI_samples_raw/gm_109_C6.wav pitch_keycenter=72 lokey=73 hikey=96
<region> sample=/Volumes/External/Code/VST2SFZ/General_MIDI_samples_raw/gm_109_C8.wav pitch_keycenter=96 lokey=97 hikey=127

// GM Program 110: fiddle
<group>
loprog=110 hiprog=110
<region> sample=/Volumes/External/Code/VST2SFZ/General_MIDI_samples_raw/gm_110_C2.wav pitch_keycenter=36 lokey=0 hikey=48
<region> sample=/Volumes/External/Code/VST2SFZ/General_MIDI_samples_raw/gm_110_C4.wav pitch_keycenter=60 lokey=49 hikey=72
<region> sample=/Volumes/External/Code/VST2SFZ/General_MIDI_samples_raw/gm_110_C6.wav pitch_keycenter=84 lokey=73 hikey=96
<region> sample=/Volumes/External/Code/VST2SFZ/General_MIDI_samples_raw/gm_110_C8.wav pitch_keycenter=108 lokey=97 hikey=127

// GM Program 111: shanai
<group>
loprog=111 hiprog=111
<region> sample=/Volumes/External/Code/VST2SFZ/General_MIDI_samples_raw/gm_111_C2.wav pitch_keycenter=36 lokey=0 hikey=48
<region> sample=/Volumes/External/Code/VST2SFZ/General_MIDI_samples_raw/gm_111_C4.wav pitch_keycenter=60 lokey=49 hikey=72
<region> sample=/Volumes/External/Code/VST2SFZ/General_MIDI_samples_raw/gm_111_C6.wav pitch_keycenter=84 lokey=73 hikey=96
<region> sample=/Volumes/External/Code/VST2SFZ/General_MIDI_samples_raw/gm_111_C8.wav pitch_keycenter=108 lokey=97 hikey=127

// GM Program 112: tinkle_bell
<group>
loprog=112 hiprog=112
<region> sample=/Volumes/External/Code/VST2SFZ/General_MIDI_samples_raw/gm_112_C2.wav pitch_keycenter=36 lokey=0 hikey=48
<region> sample=/Volumes/External/Code/VST2SFZ/General_MIDI_samples_raw/gm_112_C4.wav pitch_keycenter=60 lokey=49 hikey=72
<region> sample=/Volumes/External/Code/VST2SFZ/General_MIDI_samples_raw/gm_112_C6.wav pitch_keycenter=84 lokey=73 hikey=96
<region> sample=/Volumes/External/Code/VST2SFZ/General_MIDI_samples_raw/gm_112_C8.wav pitch_keycenter=108 lokey=97 hikey=127

// GM Program 113: agogo
<group>
loprog=113 hiprog=113
<region> sample=/Volumes/External/Code/VST2SFZ/General_MIDI_samples_raw/gm_113_C2.wav pitch_keycenter=36 lokey=0 hikey=48
<region> sample=/Volumes/External/Code/VST2SFZ/General_MIDI_samples_raw/gm_113_C4.wav pitch_keycenter=60 lokey=49 hikey=72
<region> sample=/Volumes/External/Code/VST2SFZ/General_MIDI_samples_raw/gm_113_C6.wav pitch_keycenter=84 lokey=73 hikey=96
<region> sample=/Volumes/External/Code/VST2SFZ/General_MIDI_samples_raw/gm_113_C8.wav pitch_keycenter=108 lokey=97 hikey=127

// GM Program 114: steel_drums
<group>
loprog=114 hiprog=114
<region> sample=/Volumes/External/Code/VST2SFZ/General_MIDI_samples_raw/gm_114_C2.wav pitch_keycenter=24 lokey=0 hikey=48
<region> sample=/Volumes/External/Code/VST2SFZ/General_MIDI_samples_raw/gm_114_C4.wav pitch_keycenter=48 lokey=49 hikey=72
<region> sample=/Volumes/External/Code/VST2SFZ/General_MIDI_samples_raw/gm_114_C6.wav pitch_keycenter=72 lokey=73 hikey=96
<region> sample=/Volumes/External/Code/VST2SFZ/General_MIDI_samples_raw/gm_114_C8.wav pitch_keycenter=96 lokey=97 hikey=127

// GM Program 115: woodblock
<group>
loprog=115 hiprog=115
<region> sample=/Volumes/External/Code/VST2SFZ/General_MIDI_samples_raw/gm_115_C2.wav pitch_keycenter=24 lokey=0 hikey=48
<region> sample=/Volumes/External/Code/VST2SFZ/General_MIDI_samples_raw/gm_115_C4.wav pitch_keycenter=48 lokey=49 hikey=72
<region> sample=/Volumes/External/Code/VST2SFZ/General_MIDI_samples_raw/gm_115_C6.wav pitch_keycenter=72 lokey=73 hikey=96
<region> sample=/Volumes/External/Code/VST2SFZ/General_MIDI_samples_raw/gm_115_C8.wav pitch_keycenter=96 lokey=97 hikey=127

// GM Program 116: taiko_drum
<group>
loprog=116 hiprog=116
<region> sample=/Volumes/External/Code/VST2SFZ/General_MIDI_samples_raw/gm_116_C2.wav pitch_keycenter=24 lokey=0 hikey=48
<region> sample=/Volumes/External/Code/VST2SFZ/General_MIDI_samples_raw/gm_116_C4.wav pitch_keycenter=48 lokey=49 hikey=72
<region> sample=/Volumes/External/Code/VST2SFZ/General_MIDI_samples_raw/gm_116_C6.wav pitch_keycenter=72 lokey=73 hikey=96
<region> sample=/Volumes/External/Code/VST2SFZ/General_MIDI_samples_raw/gm_116_C8.wav pitch_keycenter=96 lokey=97 hikey=127

// GM Program 117: melodic_tom
<group>
loprog=117 hiprog=117
<region> sample=/Volumes/External/Code/VST2SFZ/General_MIDI_samples_raw/gm_117_C2.wav pitch_keycenter=24 lokey=0 hikey=48
<region> sample=/Volumes/External/Code/VST2SFZ/General_MIDI_samples_raw/gm_117_C4.wav pitch_keycenter=48 lokey=49 hikey=72
<region> sample=/Volumes/External/Code/VST2SFZ/General_MIDI_samples_raw/gm_117_C6.wav pitch_keycenter=72 lokey=73 hikey=96
<region> sample=/Volumes/External/Code/VST2SFZ/General_MIDI_samples_raw/gm_117_C8.wav pitch_keycenter=96 lokey=97 hikey=127

// GM Program 118: synth_drum
<group>
loprog=118 hiprog=118
<region> sample=/Volumes/External/Code/VST2SFZ/General_MIDI_samples_raw/gm_118_C2.wav pitch_keycenter=36 lokey=0 hikey=48
<region> sample=/Volumes/External/Code/VST2SFZ/General_MIDI_samples_raw/gm_118_C4.wav pitch_keycenter=60 lokey=49 hikey=72
<region> sample=/Volumes/External/Code/VST2SFZ/General_MIDI_samples_raw/gm_118_C6.wav pitch_keycenter=84 lokey=73 hikey=96
<region> sample=/Volumes/External/Code/VST2SFZ/General_MIDI_samples_raw/gm_118_C8.wav pitch_keycenter=108 lokey=97 hikey=127

// GM Program 119: reverse_cymbal
<group>
loprog=119 hiprog=119
<region> sample=/Volumes/External/Code/VST2SFZ/General_MIDI_samples_raw/gm_119_C2.wav pitch_keycenter=24 lokey=0 hikey=48
<region> sample=/Volumes/External/Code/VST2SFZ/General_MIDI_samples_raw/gm_119_C4.wav pitch_keycenter=48 lokey=49 hikey=72
<region> sample=/Volumes/External/Code/VST2SFZ/General_MIDI_samples_raw/gm_119_C6.wav pitch_keycenter=72 lokey=73 hikey=96
<region> sample=/Volumes/External/Code/VST2SFZ/General_MIDI_samples_raw/gm_119_C8.wav pitch_keycenter=96 lokey=97 hikey=127

// GM Program 120: guitar_fret_noise
<group>
loprog=120 hiprog=120
<region> sample=/Volumes/External/Code/VST2SFZ/General_MIDI_samples_raw/gm_120_C2.wav pitch_keycenter=60 lokey=0 hikey=48
<region> sample=/Volumes/External/Code/VST2SFZ/General_MIDI_samples_raw/gm_120_C4.wav pitch_keycenter=84 lokey=49 hikey=72
<region> sample=/Volumes/External/Code/VST2SFZ/General_MIDI_samples_raw/gm_120_C6.wav pitch_keycenter=108 lokey=73 hikey=96
<region> sample=/Volumes/External/Code/VST2SFZ/General_MIDI_samples_raw/gm_120_C8.wav pitch_keycenter=132 lokey=97 hikey=127

// GM Program 121: breath_noise
<group>
loprog=121 hiprog=121
<region> sample=/Volumes/External/Code/VST2SFZ/General_MIDI_samples_raw/gm_121_C2.wav pitch_keycenter=60 lokey=0 hikey=48
<region> sample=/Volumes/External/Code/VST2SFZ/General_MIDI_samples_raw/gm_121_C4.wav pitch_keycenter=84 lokey=49 hikey=72
<region> sample=/Volumes/External/Code/VST2SFZ/General_MIDI_samples_raw/gm_121_C6.wav pitch_keycenter=108 lokey=73 hikey=96
<region> sample=/Volumes/External/Code/VST2SFZ/General_MIDI_samples_raw/gm_121_C8.wav pitch_keycenter=132 lokey=97 hikey=127

// GM Program 122: seashore
<group>
loprog=122 hiprog=122
<region> sample=/Volumes/External/Code/VST2SFZ/General_MIDI_samples_raw/gm_122_C2.wav pitch_keycenter=-12 lokey=0 hikey=48
<region> sample=/Volumes/External/Code/VST2SFZ/General_MIDI_samples_raw/gm_122_C4.wav pitch_keycenter=12 lokey=49 hikey=72
<region> sample=/Volumes/External/Code/VST2SFZ/General_MIDI_samples_raw/gm_122_C6.wav pitch_keycenter=36 lokey=73 hikey=96
<region> sample=/Volumes/External/Code/VST2SFZ/General_MIDI_samples_raw/gm_122_C8.wav pitch_keycenter=60 lokey=97 hikey=127

// GM Program 123: bird_tweet
<group>
loprog=123 hiprog=123
<region> sample=/Volumes/External/Code/VST2SFZ/General_MIDI_samples_raw/gm_123_C2.wav pitch_keycenter=12 lokey=0 hikey=48
<region> sample=/Volumes/External/Code/VST2SFZ/General_MIDI_samples_raw/gm_123_C4.wav pitch_keycenter=36 lokey=49 hikey=72
<region> sample=/Volumes/External/Code/VST2SFZ/General_MIDI_samples_raw/gm_123_C6.wav pitch_keycenter=60 lokey=73 hikey=96
<region> sample=/Volumes/External/Code/VST2SFZ/General_MIDI_samples_raw/gm_123_C8.wav pitch_keycenter=84 lokey=97 hikey=127

// GM Program 124: telephone_ring
<group>
loprog=124 hiprog=124
<region> sample=/Volumes/External/Code/VST2SFZ/General_MIDI_samples_raw/gm_124_C2.wav pitch_keycenter=36 lokey=0 hikey=48
<region> sample=/Volumes/External/Code/VST2SFZ/General_MIDI_samples_raw/gm_124_C4.wav pitch_keycenter=60 lokey=49 hikey=72
<region> sample=/Volumes/External/Code/VST2SFZ/General_MIDI_samples_raw/gm_124_C6.wav pitch_keycenter=84 lokey=73 hikey=96
<region> sample=/Volumes/External/Code/VST2SFZ/General_MIDI_samples_raw/gm_124_C8.wav pitch_keycenter=108 lokey=97 hikey=127

// GM Program 125: helicopter
<group>
loprog=125 hiprog=125
<region> sample=/Volumes/External/Code/VST2SFZ/General_MIDI_samples_raw/gm_125_C2.wav pitch_keycenter=12 lokey=0 hikey=48
<region> sample=/Volumes/External/Code/VST2SFZ/General_MIDI_samples_raw/gm_125_C4.wav pitch_keycenter=36 lokey=49 hikey=72
<region> sample=/Volumes/External/Code/VST2SFZ/General_MIDI_samples_raw/gm_125_C6.wav pitch_keycenter=60 lokey=73 hikey=96
<region> sample=/Volumes/External/Code/VST2SFZ/General_MIDI_samples_raw/gm_125_C8.wav pitch_keycenter=84 lokey=97 hikey=127

// GM Program 126: applause
<group>
loprog=126 hiprog=126
<region> sample=/Volumes/External/Code/VST2SFZ/General_MIDI_samples_raw/gm_126_C2.wav pitch_keycenter=36 lokey=0 hikey=48
<region> sample=/Volumes/External/Code/VST2SFZ/General_MIDI_samples_raw/gm_126_C4.wav pitch_keycenter=60 lokey=49 hikey=72
<region> sample=/Volumes/External/Code/VST2SFZ/General_MIDI_samples_raw/gm_126_C6.wav pitch_keycenter=84 lokey=73 hikey=96
<region> sample=/Volumes/External/Code/VST2SFZ/General_MIDI_samples_raw/gm_126_C8.wav pitch_keycenter=108 lokey=97 hikey=127

// GM Program 127: gunshot
<group>
loprog=127 hiprog=127
<region> sample=/Volumes/External/Code/VST2SFZ/General_MIDI_samples_raw/gm_127_C2.wav pitch_keycenter=60 lokey=0 hikey=48
<region> sample=/Volumes/External/Code/VST2SFZ/General_MIDI_samples_raw/gm_127_C4.wav pitch_keycenter=84 lokey=49 hikey=72
<region> sample=/Volumes/External/Code/VST2SFZ/General_MIDI_samples_raw/gm_127_C6.wav pitch_keycenter=108 lokey=73 hikey=96
<region> sample=/Volumes/External/Code/VST2SFZ/General_MIDI_samples_raw/gm_127_C8.wav pitch_keycenter=132 lokey=97 hikey=127

